<?xml version="1.0" standalone="no"?>
<!DOCTYPE svg PUBLIC "-//W3C//DTD SVG 20010904//EN"
 "http://www.w3.org/TR/2001/REC-SVG-20010904/DTD/svg10.dtd">
<svg version="1.0" xmlns="http://www.w3.org/2000/svg"
 width="3000.000000pt" height="3000.000000pt" viewBox="0 0 3000.000000 3000.000000"
 preserveAspectRatio="xMidYMid meet">
<metadata>
Created by potrace 1.14, written by Peter Selinger 2001-2017
</metadata>
<g transform="translate(0.000000,3000.000000) scale(0.100000,-0.100000)"
fill="#000000" stroke="none">
<path d="M6689 24878 c-1 -24 0 -51 1 -62 1 -12 -2 -16 -12 -11 -10 6 -11 5 0
-6 6 -7 12 -19 12 -27 0 -8 -5 -10 -12 -6 -10 6 -10 4 0 -7 6 -7 12 -19 12
-27 0 -8 -5 -10 -12 -6 -10 6 -10 4 0 -7 6 -7 12 -19 12 -27 0 -8 -5 -10 -12
-6 -10 6 -10 4 0 -7 6 -7 12 -19 12 -27 0 -8 -5 -10 -12 -6 -10 6 -10 4 0 -7
6 -7 12 -19 12 -27 0 -8 -5 -10 -12 -6 -10 6 -10 4 0 -8 16 -20 14 -141 -2
-131 -6 4 -5 0 2 -9 16 -19 14 -120 -2 -111 -7 4 -7 2 1 -8 16 -20 16 -122 0
-112 -8 5 -8 2 1 -9 16 -19 14 -120 -2 -111 -6 4 -5 0 2 -9 16 -19 14 -120 -2
-111 -6 4 -5 0 2 -9 16 -20 14 -140 -2 -131 -6 3 -5 0 2 -8 6 -7 12 -19 12
-27 0 -8 -5 -10 -12 -6 -10 6 -10 4 0 -7 6 -7 12 -19 12 -27 0 -8 -5 -10 -12
-6 -10 6 -10 4 0 -7 6 -7 12 -19 12 -27 0 -8 -5 -10 -12 -6 -10 6 -10 4 0 -7
6 -7 12 -19 12 -27 0 -8 -5 -10 -12 -6 -10 6 -10 4 0 -7 6 -7 12 -19 12 -27 0
-8 -5 -10 -12 -6 -10 6 -10 4 0 -7 6 -7 12 -19 12 -27 0 -8 -5 -10 -12 -6 -10
6 -10 4 0 -7 6 -7 12 -19 12 -27 0 -8 -5 -10 -12 -6 -10 6 -10 4 0 -7 6 -7 12
-19 12 -27 0 -8 -5 -10 -12 -6 -10 6 -10 4 0 -7 6 -7 12 -19 12 -27 0 -8 -5
-10 -12 -6 -10 6 -10 4 0 -7 6 -7 12 -19 12 -27 0 -8 -5 -10 -12 -6 -10 6 -10
4 0 -7 6 -7 12 -19 12 -27 0 -8 -5 -10 -12 -6 -10 6 -10 4 0 -7 6 -7 12 -19
12 -27 0 -8 -5 -10 -12 -6 -10 6 -10 4 0 -7 6 -7 12 -19 12 -27 0 -8 -5 -10
-12 -6 -10 6 -10 4 0 -8 16 -20 14 -141 -2 -131 -6 4 -5 0 2 -9 16 -19 14
-120 -2 -111 -7 4 -7 2 1 -8 16 -20 16 -122 0 -112 -8 5 -8 2 1 -9 16 -19 14
-120 -2 -111 -6 4 -5 0 2 -9 16 -19 14 -120 -2 -111 -6 4 -5 0 2 -9 16 -20 14
-140 -2 -131 -6 3 -5 0 2 -8 6 -7 12 -19 12 -27 0 -8 -5 -10 -12 -6 -10 6 -10
4 0 -7 6 -7 12 -19 12 -27 0 -8 -5 -10 -12 -6 -10 6 -10 4 0 -7 6 -7 12 -19
12 -27 0 -8 -5 -10 -12 -6 -10 6 -10 4 0 -7 6 -7 12 -19 12 -27 0 -8 -5 -10
-12 -6 -10 6 -10 4 0 -7 6 -7 12 -19 12 -27 0 -8 -5 -10 -12 -6 -10 6 -10 5
-1 -8 16 -19 15 -100 -1 -91 -6 4 -5 0 2 -9 16 -19 14 -120 -2 -111 -7 4 -6 1
1 -8 16 -20 16 -202 -1 -192 -6 4 -6 1 2 -9 16 -19 14 -120 -2 -111 -6 4 -5 0
2 -9 16 -19 14 -120 -2 -111 -7 4 -6 1 1 -8 15 -19 14 -81 -1 -72 -6 4 -5 0 2
-9 16 -19 14 -120 -2 -111 -7 4 -6 1 1 -8 16 -20 16 -202 -1 -192 -6 4 -6 1 2
-9 16 -19 14 -120 -2 -111 -6 4 -5 0 2 -9 16 -19 14 -120 -2 -111 -6 4 -5 0 2
-9 16 -19 14 -120 -2 -111 -6 4 -5 0 2 -9 16 -19 14 -120 -2 -111 -6 4 -5 0 2
-9 16 -19 14 -120 -2 -111 -6 4 -5 0 2 -9 16 -19 14 -120 -2 -111 -6 4 -5 0 2
-9 16 -19 14 -120 -2 -111 -6 4 -5 0 2 -9 16 -20 14 -140 -2 -131 -6 3 -5 0 2
-8 6 -7 12 -19 12 -27 0 -8 -5 -10 -12 -6 -10 6 -10 4 0 -7 6 -7 12 -19 12
-27 0 -8 -5 -10 -12 -6 -10 6 -10 4 0 -7 6 -7 12 -19 12 -27 0 -8 -5 -10 -12
-6 -10 6 -10 4 0 -7 16 -17 16 -42 0 -33 -10 6 -10 4 0 -7 6 -7 12 -19 12 -27
0 -8 -5 -10 -12 -6 -10 6 -10 4 0 -8 16 -20 14 -141 -2 -131 -6 4 -5 0 2 -9
16 -19 14 -120 -2 -111 -7 4 -7 2 1 -8 16 -20 16 -122 0 -112 -8 5 -8 2 1 -9
16 -19 14 -120 -2 -111 -6 4 -5 0 2 -9 16 -19 14 -120 -2 -111 -6 4 -5 0 2 -9
16 -20 14 -140 -2 -131 -6 3 -5 0 2 -8 16 -17 16 -42 0 -33 -10 6 -10 4 0 -7
6 -7 12 -19 12 -27 0 -8 -5 -10 -12 -6 -10 6 -10 4 0 -7 6 -7 12 -19 12 -27 0
-8 -5 -10 -12 -6 -10 6 -10 4 0 -7 16 -17 16 -42 0 -33 -10 6 -10 4 0 -7 6 -7
12 -19 12 -27 0 -8 -5 -10 -12 -6 -10 6 -10 4 0 -8 16 -20 14 -141 -2 -131 -6
4 -5 0 2 -9 16 -19 14 -120 -2 -111 -7 4 -7 2 1 -8 16 -20 16 -122 0 -112 -8
5 -8 2 1 -9 16 -19 14 -120 -2 -111 -6 4 -5 0 2 -9 16 -19 14 -120 -2 -111 -6
4 -5 0 2 -9 16 -19 14 -120 -2 -111 -6 4 -5 0 2 -9 16 -19 14 -120 -2 -111 -7
4 -6 1 1 -8 16 -20 16 -202 -1 -192 -6 4 -6 1 2 -9 16 -19 14 -120 -2 -111 -6
4 -5 0 2 -9 16 -19 14 -120 -2 -111 -7 4 -6 1 1 -8 15 -19 14 -81 -1 -72 -6 4
-5 0 2 -9 16 -19 14 -120 -2 -111 -7 4 -6 1 1 -8 16 -20 16 -202 -1 -192 -6 4
-6 1 2 -9 16 -19 14 -120 -2 -111 -6 4 -5 0 2 -9 16 -19 14 -120 -2 -111 -7 4
-6 1 1 -8 15 -19 15 -101 -1 -92 -6 3 -6 0 2 -8 6 -7 12 -19 12 -27 0 -8 -5
-10 -12 -6 -10 6 -10 4 0 -7 6 -7 12 -19 12 -27 0 -8 -5 -10 -12 -6 -10 6 -10
4 0 -7 6 -7 12 -19 12 -27 0 -8 -5 -10 -12 -6 -10 6 -10 4 0 -7 16 -17 16 -42
0 -33 -10 6 -10 4 0 -7 6 -7 12 -19 12 -27 0 -8 -5 -10 -12 -6 -10 6 -10 4 0
-8 16 -20 14 -141 -2 -131 -6 4 -5 0 2 -9 16 -19 14 -120 -2 -111 -7 4 -7 2 1
-8 16 -20 16 -122 0 -112 -8 5 -8 2 1 -9 16 -19 14 -120 -2 -111 -6 4 -5 0 2
-9 16 -19 14 -120 -2 -111 -6 4 -5 0 2 -9 16 -20 14 -140 -2 -131 -6 3 -5 0 2
-8 16 -17 16 -42 0 -33 -10 6 -10 4 0 -7 6 -7 12 -19 12 -27 0 -8 -5 -10 -12
-6 -10 6 -10 4 0 -7 16 -17 16 -42 0 -33 -10 6 -10 4 0 -7 6 -7 12 -19 12 -27
0 -8 -5 -10 -12 -6 -10 6 -10 4 0 -7 16 -17 16 -42 0 -33 -10 6 -10 4 0 -7 16
-17 16 -42 0 -33 -10 6 -10 4 0 -7 6 -7 12 -19 12 -27 0 -8 -5 -10 -12 -6 -10
6 -10 4 0 -7 16 -17 16 -42 0 -33 -10 6 -10 4 0 -7 6 -7 12 -19 12 -27 0 -8
-5 -10 -12 -6 -10 6 -10 4 0 -7 16 -17 16 -42 0 -33 -10 6 -10 4 0 -7 6 -7 12
-19 12 -27 0 -8 -5 -10 -12 -6 -10 6 -10 4 0 -7 16 -17 16 -42 0 -33 -10 6
-10 4 0 -7 6 -7 12 -19 12 -27 0 -8 -5 -10 -12 -6 -10 6 -10 4 0 -8 16 -20 14
-141 -2 -131 -6 4 -5 0 2 -9 16 -19 14 -120 -2 -111 -7 4 -7 2 1 -8 16 -20 16
-122 0 -112 -8 5 -8 2 1 -9 16 -19 14 -120 -2 -111 -6 4 -5 0 2 -9 16 -19 14
-120 -2 -111 -6 4 -5 0 2 -9 16 -20 14 -140 -2 -131 -6 3 -5 0 2 -8 16 -17 16
-42 0 -33 -10 6 -10 4 0 -7 6 -7 12 -19 12 -27 0 -8 -5 -10 -12 -6 -10 6 -10
4 0 -7 16 -17 16 -42 0 -33 -10 6 -10 4 0 -7 6 -7 12 -19 12 -27 0 -8 -5 -10
-12 -6 -10 6 -10 4 0 -7 6 -7 12 -19 12 -27 0 -8 -5 -10 -12 -6 -10 6 -10 4 0
-8 16 -20 14 -141 -2 -131 -6 4 -5 0 2 -9 16 -19 14 -120 -2 -111 -6 4 -5 0 2
-9 16 -19 14 -120 -2 -111 -6 4 -5 0 2 -9 16 -19 14 -120 -2 -111 -6 4 -5 0 2
-9 16 -19 14 -120 -2 -111 -6 4 -5 0 2 -9 16 -20 14 -140 -2 -131 -6 3 -5 0 2
-8 16 -17 16 -42 0 -33 -10 6 -10 4 0 -7 16 -17 16 -42 0 -33 -10 6 -10 4 0
-7 6 -7 12 -19 12 -27 0 -8 -5 -10 -12 -6 -10 6 -10 4 0 -7 6 -7 12 -19 12
-27 0 -8 -5 -10 -12 -6 -10 6 -10 4 0 -7 6 -7 12 -19 12 -27 0 -8 -5 -10 -12
-6 -10 6 -10 4 0 -8 16 -20 14 -141 -2 -131 -6 4 -5 0 2 -9 16 -19 14 -120 -2
-111 -7 4 -7 2 1 -8 16 -20 16 -122 0 -112 -8 5 -8 2 1 -9 16 -19 14 -120 -2
-111 -6 4 -5 0 2 -9 16 -19 14 -120 -2 -111 -6 4 -5 0 2 -9 16 -20 14 -140 -2
-131 -6 3 -5 0 2 -8 6 -7 12 -19 12 -27 0 -8 -5 -10 -12 -6 -10 6 -10 4 0 -7
16 -17 16 -42 0 -33 -10 6 -10 4 0 -7 6 -7 12 -19 12 -27 0 -8 -5 -10 -12 -6
-10 6 -10 4 0 -7 16 -17 16 -42 0 -33 -10 6 -10 4 0 -7 16 -17 16 -43 0 -33
-10 6 -10 4 0 -8 16 -20 14 -141 -2 -131 -6 4 -5 0 2 -9 16 -19 14 -120 -2
-111 -7 4 -7 2 1 -8 16 -20 16 -122 0 -112 -8 5 -8 2 1 -9 16 -19 14 -120 -2
-111 -6 4 -5 0 2 -9 16 -19 14 -120 -2 -111 -6 4 -5 0 2 -9 16 -20 15 -161 -2
-151 -6 4 -5 0 2 -9 16 -19 14 -120 -2 -111 -6 4 -5 0 2 -9 16 -19 14 -120 -2
-111 -6 4 -5 0 2 -9 16 -19 14 -120 -2 -111 -6 4 -5 0 2 -9 16 -19 14 -120 -2
-111 -6 4 -5 0 2 -9 16 -20 14 -140 -2 -131 -6 3 -5 0 2 -8 16 -17 16 -42 0
-33 -10 6 -10 4 0 -7 16 -17 16 -42 0 -33 -10 6 -10 4 0 -7 16 -17 16 -42 0
-33 -10 6 -10 4 0 -7 16 -17 16 -42 0 -33 -10 6 -10 4 -1 -7 17 -17 17 -43 1
-33 -10 6 -10 4 0 -8 16 -20 14 -141 -2 -131 -6 4 -5 0 2 -9 16 -19 14 -120
-2 -111 -7 4 -7 2 1 -8 16 -20 16 -122 0 -112 -8 5 -8 2 1 -9 16 -19 14 -120
-2 -111 -6 4 -5 0 2 -9 16 -19 14 -120 -2 -111 -6 4 -5 0 2 -9 16 -20 14 -140
-2 -131 -6 3 -5 0 2 -8 16 -17 16 -42 0 -33 -10 6 -10 4 0 -7 16 -17 16 -42 0
-33 -10 6 -10 4 0 -7 16 -17 16 -42 0 -33 -10 6 -10 4 -1 -7 17 -17 17 -42 1
-33 -10 6 -10 4 0 -7 16 -17 16 -43 0 -33 -10 6 -10 4 0 -8 16 -20 14 -141 -2
-131 -6 4 -5 0 2 -9 16 -19 14 -120 -2 -111 -7 4 -7 2 1 -8 16 -20 16 -122 0
-112 -8 5 -8 2 1 -9 16 -19 14 -120 -2 -111 -6 4 -5 0 2 -9 16 -19 14 -120 -2
-111 -6 4 -5 0 2 -9 16 -19 14 -120 -2 -111 -6 4 -5 0 2 -9 16 -19 14 -120 -2
-111 -7 4 -6 1 1 -8 16 -20 16 -202 -1 -192 -6 4 -6 1 2 -9 16 -19 14 -120 -2
-111 -6 4 -5 0 2 -9 16 -19 14 -120 -2 -111 -7 4 -6 1 1 -8 15 -19 14 -81 -1
-72 -6 4 -5 0 2 -9 16 -19 14 -120 -2 -111 -7 4 -6 1 1 -8 16 -20 16 -202 -1
-192 -6 4 -6 1 2 -9 16 -19 14 -120 -2 -111 -6 4 -5 0 2 -9 16 -19 14 -120 -2
-111 -6 4 -5 0 2 -9 16 -19 14 -120 -2 -111 -6 4 -5 0 2 -9 16 -19 14 -120 -2
-111 -6 4 -5 0 2 -9 16 -19 14 -120 -2 -111 -6 4 -5 0 2 -9 16 -19 14 -120 -2
-111 -6 4 -5 0 2 -9 16 -19 14 -120 -2 -111 -6 4 -5 0 2 -9 16 -20 14 -140 -2
-131 -6 3 -5 0 1 -8 17 -17 17 -42 1 -33 -10 6 -10 4 0 -7 16 -17 16 -42 0
-33 -10 6 -10 4 0 -7 16 -17 16 -42 0 -33 -10 6 -10 4 0 -7 16 -17 16 -42 0
-33 -10 6 -10 4 0 -7 16 -17 16 -43 0 -33 -10 6 -10 4 0 -8 16 -20 14 -141 -2
-131 -6 4 -5 0 2 -9 16 -19 14 -120 -2 -111 -7 4 -7 2 1 -8 16 -20 16 -122 0
-112 -8 5 -8 2 1 -9 16 -19 14 -120 -2 -111 -6 4 -5 0 2 -9 16 -19 14 -120 -2
-111 -6 4 -5 0 2 -9 16 -20 14 -140 -2 -131 -6 3 -5 0 2 -8 6 -7 12 -19 12
-27 0 -8 -5 -10 -12 -6 -10 6 -10 4 0 -7 16 -17 16 -42 0 -33 -10 6 -10 4 0
-7 6 -7 12 -19 12 -27 0 -8 -5 -10 -12 -6 -10 6 -10 4 0 -7 16 -17 16 -42 0
-33 -10 6 -10 4 0 -7 16 -17 16 -43 0 -33 -10 6 -10 4 0 -8 16 -20 14 -141 -2
-131 -6 4 -5 0 2 -9 16 -19 14 -120 -2 -111 -7 4 -7 2 1 -8 16 -20 16 -122 0
-112 -8 5 -8 2 1 -9 16 -19 14 -120 -2 -111 -6 4 -5 0 2 -9 16 -19 14 -120 -2
-111 -6 4 -5 0 2 -9 16 -19 14 -120 -2 -111 -6 4 -5 0 2 -9 16 -19 14 -120 -2
-111 -7 4 -6 1 1 -8 16 -20 16 -201 -1 -192 -6 3 -6 1 2 -8 8 -8 12 -45 12
-105 l0 -91 2114 0 c1918 0 2113 1 2099 16 -9 8 -25 17 -37 18 -11 2 -24 10
-29 18 -4 8 -15 15 -22 15 -8 0 -15 3 -15 8 0 7 -17 18 -80 48 -19 9 -39 23
-43 30 -5 8 -12 12 -17 9 -5 -3 -14 4 -20 15 -6 11 -16 20 -22 20 -6 0 -21 11
-33 24 -13 14 -26 22 -29 19 -3 -3 -8 2 -12 11 -3 9 -10 13 -15 10 -5 -3 -9 0
-9 6 0 6 -13 16 -30 21 -16 6 -30 14 -30 18 0 11 -57 70 -63 65 -3 -3 -8 4
-12 17 -6 17 -9 19 -16 8 -7 -11 -9 -10 -9 4 0 9 -5 17 -11 17 -5 0 -7 6 -3
13 4 6 4 9 -1 5 -11 -11 -36 12 -28 25 3 5 2 7 -4 4 -11 -7 -45 28 -36 37 4 3
-1 6 -10 6 -9 0 -17 7 -17 16 0 8 -4 12 -10 9 -5 -3 -10 -2 -10 4 0 5 -16 25
-35 45 -19 20 -33 36 -31 36 3 0 -11 15 -29 34 -18 19 -36 44 -40 55 -3 12
-11 21 -16 21 -5 0 -13 8 -16 18 -4 9 -11 22 -15 27 -40 48 -98 137 -109 168
-7 20 -17 37 -21 37 -4 0 -8 5 -8 11 0 6 -9 22 -20 36 -11 14 -20 34 -20 45 0
11 -4 17 -9 14 -5 -4 -12 7 -16 24 -4 16 -10 30 -15 30 -4 0 -11 16 -14 35 -4
20 -11 33 -17 30 -5 -4 -9 2 -9 12 0 10 -7 31 -16 48 -8 16 -20 51 -25 77 -6
27 -14 46 -19 43 -4 -3 -7 1 -7 8 1 25 -16 97 -23 97 -4 0 -11 20 -14 45 -4
24 -11 47 -16 50 -4 3 -11 33 -15 67 -4 35 -12 69 -19 77 -9 12 -8 13 4 6 12
-7 13 -6 3 6 -6 8 -15 48 -19 89 -3 41 -10 80 -15 86 -5 6 -3 16 4 24 6 7 7
10 2 7 -12 -6 -17 65 -17 238 0 170 5 234 17 227 5 -3 3 3 -5 13 -8 10 -10 16
-4 12 7 -4 12 7 13 31 1 20 4 51 6 67 1 17 3 43 4 58 1 16 5 26 11 22 6 -3 10
-1 10 4 0 6 -6 11 -12 11 -10 0 -10 2 -1 8 6 4 15 36 19 70 4 35 10 58 14 52
4 -6 10 12 14 41 4 30 11 58 16 65 10 11 18 43 20 84 1 16 4 20 7 10 6 -13 31
66 35 108 1 6 5 12 10 12 4 0 8 6 8 13 0 7 9 29 20 50 11 20 20 44 20 52 0 8
4 15 9 15 5 0 12 13 16 30 4 16 10 30 15 30 5 0 12 14 15 31 5 20 10 27 15 19
5 -7 10 2 14 24 4 20 11 34 15 31 5 -2 14 15 21 40 7 25 16 42 21 39 5 -2 11
6 15 20 3 13 12 27 20 30 8 3 14 12 14 21 0 8 4 15 9 15 5 0 13 10 16 22 4 11
18 31 31 43 13 12 24 27 24 34 0 6 9 16 20 23 11 7 20 18 20 25 0 6 16 28 35
47 19 20 35 41 35 46 0 6 7 10 15 10 8 0 14 4 12 8 -3 10 182 195 211 211 12
7 20 16 17 22 -4 5 1 9 10 9 8 0 18 7 21 15 4 8 12 15 20 15 8 0 14 8 15 18 0
9 3 12 5 5 3 -7 15 -1 33 15 15 15 38 34 50 42 13 8 35 25 49 37 14 12 29 20
32 18 4 -2 14 5 23 16 9 10 24 19 32 19 8 0 15 5 15 10 0 6 7 10 15 10 7 0 19
8 24 17 8 14 11 15 11 3 0 -12 3 -11 11 2 5 10 15 18 21 18 6 0 25 11 42 24
31 23 74 42 89 38 5 -1 6 2 3 7 -3 4 15 14 39 21 25 7 45 17 45 21 0 5 7 9 16
9 8 0 36 10 62 22 26 11 53 21 60 21 6 0 12 4 12 8 0 4 18 10 40 14 22 4 42
10 45 15 3 5 23 11 45 15 22 4 40 10 40 15 0 7 23 12 135 26 28 3 52 10 55 14
3 4 32 11 65 14 83 10 88 11 103 19 7 5 12 4 12 -2 0 -6 5 -11 11 -11 5 0 8 4
5 9 -3 5 31 10 77 11 71 1 138 5 185 9 9 1 12 253 12 1225 0 674 3 1227 8
1229 9 7 8 8376 -2 8402 -6 16 -6 17 3 5 9 -12 11 -11 11 8 0 14 6 22 18 22
11 0 13 -3 5 -8 -6 -4 373 -7 842 -7 469 0 851 3 848 8 -2 4 1 7 6 7 6 0 11
-4 11 -10 0 -5 7 -10 16 -10 9 0 12 5 8 13 -6 9 -4 9 7 1 8 -7 87 -14 194 -18
166 -6 240 -11 240 -16 0 -3 47 -8 139 -15 49 -3 97 -10 105 -14 14 -7 125
-22 183 -25 9 0 14 -4 12 -8 -3 -4 7 -8 23 -9 50 -1 87 -10 95 -22 6 -9 8 -9
8 1 0 6 5 12 11 12 5 0 7 -5 3 -11 -4 -7 -1 -10 7 -7 8 3 27 1 43 -3 16 -5 48
-11 70 -15 23 -3 46 -9 51 -14 6 -4 31 -11 57 -15 26 -4 46 -10 43 -14 -2 -4
1 -8 8 -8 34 -2 93 -16 97 -23 3 -5 22 -11 43 -15 20 -4 37 -11 37 -16 0 -4
20 -11 45 -15 25 -3 43 -10 40 -14 -2 -4 20 -13 50 -20 30 -7 52 -16 50 -20
-3 -4 11 -11 30 -14 19 -4 35 -12 35 -19 0 -8 3 -8 9 1 7 11 9 11 14 -2 4 -9
16 -16 27 -16 12 0 18 -4 15 -10 -3 -5 1 -10 9 -10 9 0 33 -9 53 -20 21 -11
43 -20 50 -20 7 0 13 -4 13 -10 0 -5 11 -12 25 -16 13 -3 29 -12 35 -19 6 -8
25 -17 41 -20 16 -4 29 -11 29 -16 0 -5 6 -9 14 -9 8 0 21 -6 28 -12 18 -17
46 -35 78 -50 14 -7 27 -15 30 -18 17 -17 72 -50 93 -55 14 -4 28 -13 31 -21
3 -8 10 -14 15 -14 9 0 40 -23 81 -62 10 -9 27 -19 38 -22 11 -4 23 -13 26
-21 3 -8 10 -15 16 -15 5 0 19 -9 30 -20 11 -11 28 -20 38 -20 14 0 15 -2 2
-10 -13 -8 -12 -10 3 -10 9 0 25 -9 34 -20 10 -11 22 -20 28 -20 6 0 21 -13
35 -30 14 -16 31 -30 38 -30 7 0 10 -4 7 -10 -3 -5 0 -10 7 -10 7 0 24 -12 37
-25 13 -14 29 -25 37 -25 8 0 13 -5 12 -12 -2 -7 3 -12 11 -13 8 0 17 -9 22
-20 4 -11 8 -15 9 -10 0 6 9 -1 20 -15 10 -14 22 -22 26 -18 4 4 2 13 -3 20
-6 7 -16 30 -22 51 -7 20 -16 37 -21 37 -5 0 -12 16 -16 35 -3 19 -10 33 -14
30 -4 -3 -11 7 -15 22 -3 16 -10 30 -13 33 -16 12 -61 108 -54 115 4 5 1 5 -5
1 -7 -4 -14 -2 -14 3 -1 6 -2 16 -3 21 0 6 -6 14 -12 18 -6 4 -16 24 -23 44
-7 20 -19 42 -27 48 -7 7 -14 19 -14 26 0 8 -4 14 -9 14 -5 0 -12 14 -16 30
-4 17 -10 28 -15 25 -5 -3 -11 8 -15 25 -4 17 -10 28 -15 25 -4 -3 -11 6 -14
20 -4 14 -10 25 -15 25 -5 0 -12 14 -16 30 -4 17 -11 28 -15 25 -5 -3 -14 12
-21 34 -7 22 -16 38 -20 35 -5 -3 -9 1 -9 9 0 8 -9 24 -20 37 -11 13 -20 29
-20 35 0 7 -7 16 -16 19 -8 3 -12 10 -9 16 3 6 -1 13 -9 16 -9 3 -14 9 -12 13
3 4 -6 20 -20 36 -13 16 -27 39 -30 51 -3 12 -12 25 -20 28 -8 3 -14 12 -14
21 0 8 -4 15 -9 15 -5 0 -13 10 -17 22 -3 12 -12 28 -18 35 -32 36 -41 48 -41
56 0 4 -5 11 -10 15 -12 8 -65 85 -65 94 0 4 -14 22 -30 40 -16 18 -30 38 -30
46 0 7 -4 10 -10 7 -5 -3 -10 1 -10 10 0 8 -7 18 -15 21 -8 4 -15 12 -15 20 0
7 -10 22 -22 34 -12 11 -18 20 -14 20 4 0 -5 11 -19 25 -14 14 -25 30 -25 36
0 5 -12 21 -27 35 -16 14 -28 29 -28 33 0 3 -10 17 -22 30 -12 13 -19 29 -16
35 3 6 3 8 -1 4 -9 -7 -66 50 -66 66 0 5 -11 19 -24 31 -14 13 -22 26 -19 29
4 3 1 6 -5 6 -7 0 -12 8 -12 17 0 9 -3 14 -6 10 -9 -8 -54 43 -54 62 0 14 -2
14 -10 1 -8 -13 -10 -12 -10 3 0 9 -9 26 -20 37 -11 11 -20 23 -20 28 0 4 -9
13 -20 20 -11 7 -20 19 -20 27 0 8 -3 15 -8 15 -9 0 -73 57 -72 65 0 6 -23 34
-73 85 -21 22 -35 40 -30 41 4 0 -2 4 -14 9 -13 5 -23 16 -23 25 0 8 -7 15
-15 15 -8 0 -14 6 -13 13 2 6 -3 11 -9 9 -7 -1 -13 2 -13 6 0 5 -11 22 -25 38
-14 16 -25 32 -25 35 0 3 -11 12 -25 19 -13 7 -27 22 -31 32 -3 10 -9 16 -14
13 -5 -3 -11 4 -15 15 -4 11 -9 19 -13 17 -4 -2 -15 4 -24 15 -10 10 -16 18
-13 18 3 0 -16 20 -42 45 -25 25 -50 45 -55 45 -4 0 -8 7 -8 15 0 8 -4 15 -10
15 -13 0 -50 37 -43 43 2 3 -4 8 -15 11 -10 4 -25 18 -32 31 -7 14 -16 25 -20
25 -3 0 -26 18 -50 40 -25 22 -49 40 -53 40 -5 0 -5 5 -2 10 3 6 1 10 -6 10
-6 0 -32 21 -57 48 -25 26 -48 47 -51 47 -7 0 -73 59 -107 95 -13 14 -24 22
-24 18 0 -4 -16 8 -35 27 -19 19 -39 35 -45 35 -6 0 -8 5 -5 10 3 6 -1 10 -10
10 -8 0 -23 9 -32 20 -10 11 -23 20 -31 20 -7 0 -10 5 -7 11 4 6 -2 13 -14 16
-11 3 -18 9 -15 14 3 5 1 9 -3 9 -9 0 -30 15 -81 57 -15 13 -33 23 -40 23 -7
0 -10 5 -7 10 3 6 2 10 -4 10 -5 0 -17 8 -27 18 -10 9 -22 17 -28 17 -6 1 -10
6 -8 13 1 7 -3 12 -8 12 -14 0 -72 41 -83 58 -4 6 -14 12 -20 12 -7 0 -20 9
-30 20 -9 11 -23 20 -31 20 -8 0 -16 7 -20 15 -3 8 -13 15 -21 15 -9 0 -13 5
-10 10 3 6 -1 10 -10 10 -8 0 -18 7 -21 15 -4 8 -13 15 -20 15 -8 0 -17 6 -20
14 -3 8 -17 17 -30 20 -14 4 -22 11 -19 15 3 5 -9 14 -25 20 -17 5 -37 16 -45
23 -32 29 -45 38 -52 38 -5 0 -16 9 -26 20 -9 11 -23 20 -31 20 -8 0 -16 3
-18 8 -5 11 -66 52 -78 52 -5 0 -10 4 -10 9 0 5 -15 14 -32 22 -18 7 -37 19
-41 26 -5 7 -12 11 -18 8 -5 -4 -12 0 -15 8 -3 9 -16 18 -30 21 -13 4 -24 11
-24 16 0 6 -5 10 -11 10 -6 0 -29 14 -50 31 -22 17 -45 32 -52 34 -38 9 -56
18 -52 25 3 5 -8 11 -24 15 -16 3 -32 13 -35 21 -3 8 -15 14 -26 14 -12 0 -19
4 -16 9 3 5 -6 12 -20 15 -15 4 -32 12 -40 19 -40 36 -44 38 -44 25 0 -8 -5
-6 -11 5 -5 9 -19 17 -29 17 -11 0 -19 5 -17 12 1 7 -4 13 -10 14 -7 1 -15 3
-18 4 -7 3 -22 7 -36 9 -5 0 -7 6 -4 11 4 6 3 10 -2 9 -4 -1 -11 0 -15 1 -13
4 -27 7 -39 9 -5 0 -8 5 -5 10 4 5 -7 12 -24 16 -16 4 -30 10 -30 15 0 5 -14
11 -30 15 -17 4 -28 11 -24 16 3 5 -2 9 -10 9 -8 0 -36 11 -62 25 -26 14 -53
25 -60 25 -8 0 -14 4 -14 10 0 5 -16 12 -35 16 -19 3 -33 10 -30 14 3 5 -8 11
-25 15 -16 4 -30 10 -30 15 0 5 -13 11 -30 15 -16 4 -30 11 -30 16 0 5 -6 9
-12 9 -7 1 -31 9 -53 20 -22 11 -46 19 -52 20 -7 0 -13 4 -13 9 0 5 -22 14
-50 21 -27 7 -48 16 -45 20 3 5 -13 11 -35 15 -22 4 -38 10 -35 15 3 4 -11 11
-30 14 -19 4 -35 11 -35 16 0 4 -18 11 -40 15 -22 4 -40 10 -40 15 0 4 -16 11
-35 14 -20 4 -33 11 -31 15 3 4 -19 13 -49 20 -30 7 -55 18 -55 24 0 8 -3 7
-9 -2 -6 -9 -10 -10 -12 -2 -2 6 -18 14 -34 17 -17 3 -32 9 -33 15 -2 5 -21
12 -43 15 -21 4 -36 10 -33 15 3 5 -4 9 -14 9 -11 0 -39 9 -63 20 -24 11 -54
20 -67 20 -13 0 -21 4 -18 9 3 5 -14 12 -39 15 -25 4 -45 11 -45 15 0 8 -44
20 -99 27 -13 2 -27 8 -31 14 -4 7 -10 11 -14 11 -21 -4 -85 13 -80 21 3 5 0
8 -7 7 -19 -4 -83 12 -89 21 -3 5 -25 11 -50 15 -25 4 -47 10 -50 15 -3 4 -29
11 -58 15 -28 4 -49 11 -46 16 3 5 -6 10 -20 10 -14 1 -30 3 -36 4 -5 1 -25 3
-42 4 -22 1 -29 4 -20 10 9 5 -3 10 -35 14 -26 4 -57 9 -68 11 -11 3 -33 5
-48 5 -16 1 -26 5 -23 10 3 5 -21 12 -54 15 -33 4 -60 10 -60 14 0 4 -10 9
-22 10 -13 1 -32 4 -43 6 -11 3 -33 5 -48 5 -20 1 -26 5 -21 14 5 7 0 6 -11
-3 -10 -8 -16 -10 -12 -3 5 8 -12 13 -58 18 -36 4 -63 10 -60 14 8 7 -190 41
-330 57 -33 4 -62 10 -65 14 -3 4 -39 11 -80 14 -41 4 -77 11 -80 16 -3 4 -44
11 -92 15 -49 4 -88 11 -88 15 0 4 -41 11 -90 14 -50 4 -88 11 -86 15 3 4 -1
8 -9 8 -8 0 -11 -5 -8 -11 4 -7 1 -6 -8 1 -8 6 -47 15 -86 18 -40 4 -73 12
-73 16 0 5 -5 9 -11 9 -5 0 -8 -4 -5 -8 3 -5 -1 -9 -9 -9 -8 0 -12 4 -9 9 3 4
-7 8 -23 9 -15 0 -39 2 -53 4 -14 2 -39 5 -57 6 -18 1 -30 6 -28 10 11 16
-159 21 -1042 25 l-923 5 -1 -43z"/>
<path d="M11754 24645 c8 -8 25 -17 38 -19 13 -3 25 -5 28 -6 3 -2 8 -2 13 -1
4 0 7 -3 7 -9 0 -5 16 -12 35 -16 19 -3 35 -10 35 -14 0 -5 22 -14 50 -21 27
-7 47 -16 45 -20 -3 -4 11 -10 30 -13 19 -4 35 -11 35 -16 0 -5 16 -12 35 -16
19 -3 33 -10 30 -14 -3 -4 10 -11 29 -14 19 -4 39 -13 46 -21 7 -8 21 -15 31
-15 11 0 19 -4 19 -10 0 -5 5 -10 11 -10 5 0 35 -11 65 -25 30 -14 58 -25 63
-25 5 0 14 -7 21 -15 7 -8 16 -12 21 -10 4 3 12 -3 18 -12 8 -14 11 -15 11 -3
0 12 3 11 11 -3 6 -9 14 -15 19 -12 5 3 11 1 15 -5 4 -6 11 -7 17 -4 7 4 8 2
4 -5 -5 -7 3 -13 23 -17 17 -4 29 -10 26 -14 -3 -4 11 -11 30 -14 20 -4 33
-11 30 -16 -3 -4 8 -11 25 -15 16 -4 30 -10 30 -15 0 -5 14 -11 30 -15 17 -4
36 -12 43 -18 7 -7 35 -23 62 -37 28 -14 52 -28 55 -31 3 -4 15 -9 28 -13 12
-4 22 -11 22 -16 0 -5 14 -11 30 -15 17 -4 28 -10 25 -14 -2 -5 14 -14 37 -21
24 -6 48 -20 55 -29 7 -9 13 -12 13 -8 0 5 12 -1 26 -12 15 -12 33 -21 40 -21
8 0 14 -4 14 -10 0 -5 7 -10 15 -10 7 0 18 -7 23 -16 5 -9 13 -16 18 -16 21
-2 44 -11 44 -18 0 -3 26 -20 58 -36 31 -15 59 -32 60 -36 2 -4 9 -8 16 -8 19
0 77 -46 68 -54 -4 -4 -2 -7 3 -6 6 1 13 1 18 0 4 -1 11 -3 15 -4 5 0 16 -9
26 -18 10 -10 24 -18 32 -18 8 0 14 -4 14 -9 0 -5 15 -14 33 -22 17 -7 36 -19
40 -26 4 -7 15 -13 22 -13 8 0 15 -3 15 -8 0 -4 20 -18 45 -32 25 -14 45 -28
45 -32 0 -5 6 -8 13 -8 7 0 20 -9 30 -20 9 -11 23 -20 31 -20 8 0 17 -7 20
-16 3 -8 10 -12 16 -9 5 3 10 1 10 -4 0 -6 6 -11 14 -11 7 0 25 -11 40 -25 15
-14 31 -25 37 -25 5 0 12 -7 15 -15 4 -8 12 -15 20 -15 8 0 14 -5 14 -11 0 -5
4 -8 9 -5 5 3 11 -1 15 -9 3 -8 12 -15 21 -15 8 0 15 -4 15 -8 0 -5 12 -15 27
-23 15 -8 39 -25 54 -39 35 -31 46 -40 89 -70 19 -14 46 -35 60 -48 14 -12 43
-35 65 -50 22 -15 52 -39 67 -54 15 -16 31 -28 35 -28 5 0 19 -13 33 -30 14
-16 30 -30 37 -30 7 0 13 -7 13 -16 0 -8 4 -13 8 -10 5 3 18 -4 30 -14 12 -11
26 -20 32 -20 5 0 10 -7 10 -15 0 -8 4 -15 9 -15 5 0 31 -22 59 -49 28 -27 60
-52 72 -56 11 -3 18 -11 15 -16 -4 -5 -2 -9 3 -9 15 0 122 -107 114 -115 -4
-3 -2 -6 3 -4 6 1 18 -1 28 -6 15 -6 16 -10 5 -16 -10 -7 -9 -9 5 -9 10 0 35
-18 56 -40 21 -22 43 -40 49 -40 7 0 11 -4 9 -8 -3 -10 165 -177 176 -174 4 1
7 -3 7 -10 0 -6 37 -47 82 -90 45 -43 79 -78 75 -78 -4 0 34 -41 83 -91 49
-50 88 -96 87 -102 -1 -6 4 -11 11 -12 6 0 12 -3 12 -8 0 -4 22 -30 50 -57 28
-27 50 -53 49 -57 0 -4 7 -10 16 -13 9 -3 15 -8 14 -10 -3 -5 21 -38 53 -71 9
-9 14 -20 11 -22 -2 -3 5 -10 16 -17 12 -6 21 -18 21 -26 0 -8 5 -12 10 -9 6
3 13 -2 17 -12 4 -10 16 -27 27 -38 12 -11 27 -33 34 -48 6 -15 16 -26 21 -22
5 3 12 -4 16 -15 3 -11 11 -20 16 -20 5 0 9 -6 9 -13 0 -7 8 -20 18 -28 9 -9
24 -26 32 -39 8 -13 23 -30 33 -39 9 -8 17 -21 17 -27 0 -7 7 -14 15 -18 8 -3
15 -12 15 -21 0 -8 8 -15 18 -16 9 0 12 -3 6 -5 -11 -5 1 -23 47 -73 8 -10 19
-25 22 -35 4 -9 11 -14 17 -11 5 3 10 0 10 -8 0 -8 9 -24 20 -37 11 -13 23
-34 26 -46 3 -12 12 -25 20 -28 8 -3 14 -13 14 -21 0 -9 5 -13 10 -10 6 3 10
0 10 -7 0 -8 13 -28 29 -46 16 -17 32 -41 36 -52 3 -11 11 -20 16 -20 5 0 9
-7 9 -15 0 -7 8 -19 18 -24 9 -6 14 -11 9 -11 -8 0 19 -46 40 -68 7 -7 13 -19
13 -27 0 -7 7 -15 15 -19 8 -3 15 -12 15 -21 0 -8 4 -15 9 -15 5 0 12 -11 15
-25 4 -14 10 -23 15 -20 5 2 12 -6 15 -20 4 -14 11 -25 16 -25 6 0 10 -7 10
-15 0 -7 6 -18 14 -22 7 -4 19 -25 25 -45 7 -21 17 -38 22 -38 5 0 9 -7 9 -15
0 -9 6 -18 14 -21 8 -3 17 -17 21 -31 3 -14 11 -31 18 -39 30 -34 37 -44 43
-68 3 -14 10 -23 15 -20 5 3 10 0 10 -5 1 -6 3 -14 4 -18 2 -5 6 -18 10 -30 4
-13 11 -23 15 -23 4 0 11 -11 14 -25 4 -14 10 -25 15 -25 5 0 12 -13 16 -30 4
-16 11 -30 16 -30 5 0 11 -11 15 -25 3 -14 10 -23 14 -20 5 3 11 -8 15 -25 4
-16 11 -30 16 -30 5 0 9 -9 9 -20 0 -11 5 -20 11 -20 5 0 7 -4 4 -10 -3 -5 -2
-10 4 -10 6 0 16 -18 22 -40 7 -21 15 -37 19 -35 4 3 11 -11 14 -30 4 -19 11
-35 16 -35 6 0 10 -6 10 -14 0 -8 6 -21 14 -28 14 -15 31 -58 28 -71 -1 -5 2
-6 8 -2 5 3 10 3 11 -2 3 -29 10 -47 26 -65 10 -11 17 -22 15 -24 -7 -9 10
-64 18 -59 4 3 11 -7 15 -22 3 -16 11 -30 16 -33 7 -5 15 -33 18 -63 1 -5 6
-5 11 -2 6 4 10 3 9 -2 -4 -15 13 -63 22 -63 5 0 9 -8 9 -18 0 -10 6 -26 14
-37 7 -11 17 -35 21 -52 3 -18 11 -33 15 -33 10 0 35 -78 31 -99 -1 -7 2 -10
8 -7 6 4 13 -9 17 -29 3 -19 10 -35 14 -35 5 0 12 -15 15 -32 4 -18 11 -35 16
-38 8 -6 16 -37 18 -70 1 -12 3 -12 10 -2 5 9 10 0 14 -29 3 -23 10 -45 16
-48 6 -4 15 -31 22 -61 6 -30 17 -62 24 -70 14 -16 15 -18 15 -51 0 -11 5 -17
10 -14 6 3 10 -1 10 -10 0 -8 11 -46 24 -84 13 -38 21 -73 18 -77 -4 -4 -2 -4
4 -1 7 4 14 -8 18 -35 4 -23 11 -45 16 -48 5 -3 12 -23 15 -43 4 -20 13 -49
20 -64 8 -15 17 -51 21 -81 4 -31 10 -49 14 -42 5 7 11 -9 15 -39 4 -28 10
-51 15 -51 4 0 11 -20 14 -45 4 -25 11 -45 16 -45 4 0 11 -23 15 -50 4 -28 10
-48 15 -45 4 3 11 -20 15 -50 3 -31 11 -53 16 -50 5 4 10 -3 10 -14 1 -12 3
-25 4 -31 1 -5 3 -22 4 -36 0 -14 5 -23 9 -20 6 4 33 -128 35 -171 0 -7 4 -10
8 -8 3 3 10 -20 14 -50 3 -30 10 -57 15 -60 4 -2 11 -39 15 -80 4 -41 10 -75
15 -75 7 0 26 -115 21 -134 -1 -5 2 -12 7 -15 10 -6 21 -87 22 -151 0 -26 3
-31 10 -20 7 11 10 1 11 -35 0 -27 3 -62 5 -77 2 -16 6 -40 8 -55 2 -16 5 -50
5 -78 1 -36 4 -46 11 -35 5 8 10 10 10 4 0 -5 -5 -15 -12 -22 -7 -7 -8 -12 -2
-12 6 0 11 -6 11 -12 0 -7 4 -49 8 -93 4 -44 8 -87 8 -95 0 -8 4 -20 9 -27 5
-7 5 -14 -2 -18 -6 -3 -7 -12 -3 -18 10 -17 11 -26 19 -167 4 -73 11 -128 18
-132 7 -5 6 -8 -4 -8 -13 0 -13 -1 0 -10 13 -9 13 -10 0 -10 -9 0 -11 -3 -5
-8 6 -4 12 -20 12 -37 13 -318 16 -418 15 -457 0 -27 4 -48 9 -48 6 0 7 -5 2
-12 -10 -16 -11 -208 -1 -202 13 8 9 -21 -4 -35 -10 -11 -10 -13 0 -7 7 4 12
1 12 -8 0 -9 -4 -16 -10 -16 -5 0 -10 -5 -10 -11 0 -5 4 -8 8 -5 5 3 9 -1 9
-9 0 -8 -3 -12 -7 -10 -3 2 -6 -5 -6 -15 0 -10 4 -16 8 -14 4 3 8 -2 8 -11 0
-10 -5 -13 -12 -9 -9 6 -9 3 0 -9 8 -9 10 -22 6 -29 -10 -16 -12 -238 -3 -232
8 5 5 -13 -6 -39 -4 -10 -2 -24 6 -34 8 -9 9 -14 3 -10 -8 5 -12 -25 -14 -101
-1 -59 -3 -147 -5 -197 -2 -49 -4 -112 -4 -138 -1 -36 -4 -46 -13 -41 -10 6
-10 5 -1 -7 10 -12 10 -18 1 -27 -9 -9 -9 -12 2 -12 13 0 13 -2 0 -10 -13 -9
-13 -10 0 -10 10 0 11 -3 4 -8 -10 -6 -23 -154 -24 -270 0 -24 -3 -41 -8 -39
-4 3 -8 -7 -8 -21 -4 -84 -16 -209 -21 -222 -3 -8 -7 -24 -8 -35 -9 -71 -15
-118 -20 -175 -4 -36 -11 -70 -16 -76 -5 -6 -4 -16 4 -24 9 -10 9 -11 0 -6 -9
5 -13 0 -13 -16 -1 -48 -13 -133 -20 -138 -7 -5 -19 -88 -20 -133 0 -10 -4
-16 -9 -13 -7 4 -17 -50 -23 -121 -1 -7 -5 -13 -10 -13 -4 0 -8 -5 -8 -11 0
-5 4 -8 10 -4 5 3 3 -7 -5 -22 -8 -15 -15 -43 -15 -60 0 -18 -5 -33 -10 -33
-6 0 -10 -6 -9 -12 1 -7 -1 -29 -5 -48 -12 -59 -14 -74 -15 -100 -1 -18 -4
-21 -10 -12 -5 9 -11 -8 -15 -47 -4 -36 -11 -59 -17 -56 -5 4 -9 3 -8 -2 5
-18 -14 -103 -22 -103 -5 0 -9 -10 -9 -23 0 -12 -8 -33 -17 -46 -9 -14 -11
-21 -5 -17 7 4 12 2 12 -3 0 -6 -4 -11 -9 -11 -5 0 -12 -18 -16 -40 -4 -22
-10 -40 -15 -40 -4 0 -11 -20 -15 -45 -3 -25 -10 -43 -16 -40 -5 4 -9 -2 -10
-12 -1 -35 -10 -68 -23 -88 -7 -11 -17 -36 -21 -55 -4 -19 -11 -37 -16 -40 -5
-3 -10 -15 -12 -27 -1 -12 -8 -27 -14 -35 -6 -7 -14 -28 -18 -46 -3 -17 -11
-32 -16 -32 -5 0 -9 -8 -9 -18 0 -10 -6 -26 -14 -37 -7 -11 -16 -32 -20 -47
-3 -16 -11 -28 -16 -28 -6 0 -10 -7 -10 -16 0 -9 -11 -38 -25 -66 -14 -27 -25
-56 -25 -64 0 -8 -4 -14 -10 -14 -5 0 -12 -11 -16 -25 -3 -13 -12 -29 -20 -36
-8 -6 -14 -20 -14 -31 0 -10 -4 -17 -9 -14 -5 4 -12 -7 -16 -23 -3 -16 -13
-32 -21 -35 -8 -3 -14 -14 -14 -24 0 -17 -10 -32 -52 -82 -7 -8 -12 -17 -10
-20 1 -3 -4 -12 -12 -21 -8 -9 -17 -26 -21 -38 -3 -12 -11 -19 -16 -15 -5 3
-9 2 -8 -3 2 -15 -13 -53 -20 -49 -4 3 -20 -19 -36 -47 -16 -29 -35 -58 -42
-65 -7 -7 -13 -19 -13 -27 0 -7 -7 -15 -15 -19 -8 -3 -15 -10 -15 -16 0 -6
-11 -21 -23 -33 -13 -12 -26 -26 -28 -32 -12 -28 -52 -85 -60 -85 -5 0 -9 -7
-9 -15 0 -9 -7 -18 -15 -21 -8 -4 -15 -12 -15 -19 0 -8 -13 -27 -30 -43 -16
-17 -30 -34 -30 -39 0 -5 -8 -16 -17 -24 -22 -19 -63 -67 -63 -73 0 -3 -20
-25 -45 -50 -25 -26 -45 -51 -45 -57 0 -5 -4 -8 -9 -4 -5 3 -12 -4 -16 -15 -3
-11 -14 -20 -22 -20 -9 0 -14 -3 -10 -6 8 -8 -18 -34 -33 -34 -6 0 -8 -5 -5
-10 3 -6 -2 -13 -12 -17 -20 -7 -53 -41 -53 -55 0 -4 -4 -7 -8 -5 -5 1 -22
-11 -39 -28 -17 -16 -43 -39 -58 -50 -14 -11 -34 -28 -43 -38 -9 -9 -22 -17
-30 -17 -7 0 -10 -4 -7 -10 3 -5 0 -10 -7 -10 -8 0 -21 -9 -31 -20 -9 -11 -23
-20 -30 -20 -8 0 -20 -11 -27 -25 -7 -13 -16 -24 -19 -23 -3 1 -22 -6 -41 -15
-19 -9 -30 -16 -25 -17 6 0 -10 -12 -35 -27 -25 -15 -51 -33 -58 -40 -7 -7
-20 -13 -28 -13 -8 0 -12 -5 -9 -10 3 -6 1 -11 -4 -11 -6 -1 -15 -3 -21 -4 -5
-1 -15 -3 -21 -4 -5 0 -8 -5 -5 -10 4 -5 -7 -12 -24 -16 -17 -4 -37 -13 -45
-22 -14 -13 -31 -20 -58 -22 -5 -1 -6 -5 -3 -10 4 -5 -7 -12 -24 -16 -16 -4
-30 -10 -30 -15 0 -5 -13 -11 -29 -15 -16 -3 -32 -13 -35 -22 -4 -9 -9 -13
-12 -10 -4 3 -23 -3 -42 -14 -20 -10 -45 -19 -55 -19 -10 0 -16 -4 -13 -9 3
-5 -17 -14 -44 -21 -28 -7 -50 -16 -50 -20 0 -4 -16 -11 -35 -14 -19 -4 -35
-11 -35 -16 0 -6 -11 -10 -24 -10 -14 0 -32 -8 -42 -17 -10 -10 -20 -17 -23
-16 -15 6 -81 -11 -71 -17 7 -5 -10 -11 -39 -15 -28 -4 -51 -10 -51 -15 0 -8
-127 -36 -143 -32 -5 1 -6 -2 -3 -7 3 -5 -14 -12 -39 -15 -25 -4 -45 -13 -45
-19 0 -7 -4 -6 -10 3 -6 9 -10 10 -10 3 0 -7 -23 -14 -55 -18 -30 -4 -53 -11
-50 -15 3 -4 -27 -11 -65 -15 -39 -4 -72 -11 -75 -15 -5 -8 -103 -25 -137 -23
-10 0 -15 -3 -13 -7 3 -5 -29 -11 -70 -15 -41 -4 -75 -12 -75 -17 0 -6 -8 -4
-17 3 -9 8 -14 9 -10 3 6 -11 -31 -17 -217 -30 -44 -4 -84 -12 -88 -18 -5 -7
-8 -6 -8 4 0 10 -3 11 -8 4 -6 -10 -245 -29 -315 -26 -9 0 -15 -3 -13 -7 3 -4
-1 -8 -9 -8 -8 0 -12 5 -8 10 3 5 -4 4 -15 -2 -27 -14 -35 -14 -26 2 6 9 4 9
-7 1 -19 -16 -37 -16 -969 -19 -903 -3 -942 -3 -933 -18 3 -6 2 -8 -3 -5 -12
7 -155 -11 -168 -21 -6 -5 -37 -12 -68 -15 -32 -4 -60 -11 -63 -16 -3 -5 -29
-12 -56 -16 -28 -4 -46 -10 -40 -13 6 -4 -17 -13 -52 -20 -34 -7 -64 -16 -67
-19 -3 -4 -27 -18 -55 -30 -104 -49 -120 -57 -125 -64 -3 -3 -17 -10 -33 -13
-15 -4 -24 -11 -21 -16 3 -5 -1 -9 -9 -9 -21 0 -68 -26 -60 -33 3 -4 1 -8 -5
-8 -7 -1 -15 -2 -20 -3 -4 0 -18 -11 -31 -23 -13 -12 -29 -20 -34 -16 -6 3 -7
1 -3 -5 3 -6 -3 -13 -14 -17 -11 -3 -20 -11 -20 -16 0 -5 -5 -9 -12 -9 -6 0
-23 -12 -37 -28 -14 -15 -38 -34 -53 -41 -16 -8 -28 -20 -28 -28 0 -7 -5 -13
-10 -13 -9 0 -57 -46 -101 -97 -9 -10 -30 -29 -47 -43 -17 -14 -31 -28 -32
-33 0 -4 -8 -16 -17 -26 -32 -35 -48 -55 -48 -61 0 -3 -10 -16 -22 -30 -13
-13 -23 -29 -23 -36 0 -6 -7 -14 -15 -18 -8 -3 -15 -12 -15 -21 0 -8 -4 -15
-9 -15 -5 0 -12 -11 -15 -25 -4 -14 -11 -25 -16 -25 -6 0 -10 -6 -10 -14 0 -8
-8 -21 -17 -28 -10 -7 -20 -22 -21 -33 -2 -11 -8 -22 -12 -25 -4 -3 -13 -24
-20 -47 -7 -23 -16 -41 -19 -38 -4 2 -8 -6 -8 -18 -1 -12 -8 -26 -16 -32 -8
-6 -18 -29 -22 -53 -4 -23 -10 -40 -15 -37 -4 3 -11 -17 -15 -45 -4 -28 -10
-48 -15 -45 -8 5 -20 -42 -20 -84 0 -20 -2 -23 -10 -11 -8 12 -10 12 -10 -5
-1 -47 -13 -101 -24 -107 -7 -5 -6 -8 4 -8 10 0 11 -3 4 -8 -21 -13 -32 -172
-29 -402 3 -227 12 -360 25 -360 4 0 10 -22 13 -48 7 -63 10 -76 20 -83 5 -3
11 -25 14 -48 3 -22 9 -41 13 -41 5 0 11 -18 15 -40 4 -22 10 -40 15 -40 4 0
10 -18 14 -40 3 -22 11 -40 16 -40 6 0 10 -6 10 -14 0 -8 7 -22 16 -30 11 -11
12 -16 3 -16 -7 0 -4 -6 7 -15 10 -8 16 -15 11 -15 -4 0 -1 -13 7 -29 9 -16
12 -32 8 -36 -4 -5 -1 -5 6 -1 6 4 13 2 13 -3 1 -6 2 -16 3 -21 0 -6 6 -14 11
-18 6 -4 16 -18 23 -32 27 -53 39 -70 45 -63 4 3 7 0 7 -7 0 -14 43 -82 68
-108 6 -7 12 -18 12 -23 0 -6 4 -7 10 -4 5 3 10 0 10 -9 0 -8 15 -29 33 -47
17 -18 32 -37 32 -43 0 -6 7 -11 15 -11 8 0 15 -7 15 -15 1 -8 5 -14 10 -13
10 1 28 -15 36 -32 2 -5 7 -9 11 -8 5 2 8 -3 8 -11 0 -8 9 -18 20 -21 11 -4
18 -10 15 -15 -3 -4 5 -15 18 -23 12 -8 32 -23 44 -33 12 -11 34 -28 48 -39
14 -11 33 -27 42 -35 9 -8 21 -15 27 -15 6 -1 10 -6 9 -12 -1 -6 11 -14 27
-18 17 -4 28 -11 25 -16 -3 -4 6 -11 20 -15 13 -3 22 -10 20 -15 -3 -5 6 -11
20 -15 14 -3 25 -9 25 -13 0 -5 18 -14 40 -21 22 -7 40 -16 40 -20 0 -7 38
-23 52 -21 3 0 12 -6 18 -14 7 -8 19 -15 26 -15 8 0 14 -4 14 -10 0 -5 8 -10
18 -10 9 -1 35 -9 57 -20 22 -11 48 -19 58 -20 9 0 17 -4 17 -9 0 -6 20 -13
45 -17 25 -3 45 -10 45 -14 0 -5 33 -14 74 -21 48 -8 73 -17 69 -23 -4 -6 2
-4 12 4 11 9 16 10 11 3 -5 -9 1 -13 21 -14 75 -4 106 -9 121 -21 12 -10 14
-10 8 -1 -4 7 -3 13 3 13 5 0 11 -6 14 -12 3 -10 190 -13 893 -13 1007 0 1077
1 1068 18 -5 8 -2 8 7 -1 16 -15 55 -16 64 -1 4 6 14 7 24 4 27 -11 45 -13 56
-5 6 4 89 11 185 14 196 7 221 9 240 21 8 5 11 4 7 -2 -3 -5 0 -10 8 -10 8 0
12 4 9 9 -3 4 2 8 11 8 10 0 13 -5 9 -13 -6 -9 -5 -9 7 0 8 6 70 15 139 19 69
4 139 8 155 10 17 1 55 3 85 3 39 1 51 4 40 11 -8 5 -10 10 -4 10 5 0 15 -5
22 -12 8 -8 12 -8 12 -1 0 6 42 13 108 18 61 4 110 12 114 19 5 7 8 6 8 -4 0
-10 3 -11 8 -4 4 7 50 15 102 19 52 4 100 11 106 16 7 6 16 9 20 8 17 -4 149
14 159 21 9 7 120 21 168 21 9 0 15 4 12 10 -4 5 -1 9 4 9 6 0 11 -6 11 -12 0
-10 2 -10 8 -1 4 6 35 15 69 19 42 4 60 10 56 18 -4 6 1 5 10 -3 9 -7 17 -9
17 -4 0 6 47 16 105 23 58 7 105 16 105 20 0 4 25 10 56 13 30 3 63 12 72 19
12 9 14 10 8 1 -4 -7 -2 -13 3 -13 6 0 11 4 11 9 0 5 27 12 60 16 33 4 60 10
60 14 0 4 6 8 13 8 39 3 103 16 107 23 3 5 30 11 60 15 30 4 58 11 61 17 3 5
9 9 13 8 3 -1 19 1 34 4 15 3 45 8 67 11 21 3 42 9 45 14 3 5 31 12 62 16 32
4 56 11 53 15 -3 5 19 12 50 15 30 4 52 11 49 16 -3 5 3 9 13 10 40 2 78 11
84 21 3 5 10 9 15 9 25 -1 83 13 79 19 -3 5 17 11 45 15 27 4 50 10 50 15 0 4
29 13 65 20 36 7 62 16 59 22 -3 5 0 8 7 7 24 -5 79 12 73 22 -3 5 -2 9 3 8
18 -5 83 14 83 24 0 6 3 8 6 4 9 -9 64 14 64 26 0 7 5 5 10 -3 6 -9 10 -10 10
-3 0 6 15 15 33 18 17 4 37 12 44 17 6 5 24 11 40 14 15 3 29 9 31 14 2 5 19
12 38 16 19 3 37 10 39 15 3 4 12 6 20 2 8 -3 15 -1 15 5 0 6 15 14 33 17 17
4 41 14 52 21 11 8 28 14 38 14 10 0 16 4 13 9 -6 9 50 27 67 23 5 -2 6 2 2 8
-3 5 0 11 7 11 7 1 18 2 23 4 6 1 16 3 23 3 7 1 11 6 8 11 -3 5 8 11 26 15 17
3 65 23 107 43 42 20 81 36 88 36 7 0 10 4 7 8 -3 5 7 11 21 15 14 3 25 11 25
17 0 6 3 8 6 4 3 -3 25 5 49 19 24 13 51 24 60 24 9 0 14 4 11 9 -3 5 15 14
39 21 25 7 45 16 45 20 0 4 11 11 25 14 14 4 25 11 25 17 0 6 5 7 10 4 6 -3
10 -1 10 4 0 6 9 11 20 11 11 0 20 4 20 9 0 5 14 12 30 16 17 4 28 11 24 16
-3 5 2 9 10 9 8 0 21 6 28 13 7 8 30 20 51 26 20 7 37 16 37 21 0 4 11 11 25
14 16 4 23 11 19 18 -4 6 -3 8 4 4 6 -3 13 -2 17 4 4 6 11 8 16 5 5 -4 12 0
15 9 3 8 19 18 36 21 20 5 26 10 18 15 -8 5 -2 10 19 15 17 3 31 11 31 16 0 5
6 9 14 9 8 0 22 8 32 17 10 10 20 18 23 19 16 2 47 19 53 28 4 6 11 11 16 11
5 0 16 8 26 17 10 10 26 18 37 18 10 0 18 6 16 13 -1 6 4 11 11 9 7 -1 15 5
18 13 4 8 12 15 20 15 7 0 17 6 21 13 9 14 63 42 76 38 5 -1 6 3 3 8 -4 5 3
13 15 16 20 7 51 30 91 67 10 10 22 18 26 18 8 0 23 11 69 50 7 5 16 10 22 10
5 0 19 11 32 25 13 13 30 25 37 25 6 0 12 4 12 9 0 5 9 11 21 14 13 4 18 10
13 18 -4 7 -3 10 3 6 5 -4 19 3 31 13 12 11 26 20 31 20 6 0 15 9 21 20 6 11
18 20 26 20 8 0 12 5 9 10 -3 6 0 10 8 10 8 0 25 10 38 22 14 13 27 23 30 23
5 0 27 18 75 63 20 17 40 32 45 32 6 0 7 5 4 10 -3 6 1 10 9 10 9 0 16 4 16
10 0 5 4 9 9 7 5 -1 20 11 35 26 14 15 26 25 26 21 0 -5 18 11 40 34 23 23 45
42 51 42 6 0 7 5 4 10 -3 6 0 10 9 10 8 0 30 15 49 34 20 19 38 32 40 29 3 -2
8 4 11 15 4 11 16 22 27 25 12 3 18 10 14 16 -3 6 -1 11 6 11 6 0 29 18 51 40
22 22 44 37 49 34 5 -3 9 1 9 8 0 7 13 24 29 38 17 13 27 28 24 33 -3 6 -1 7
4 4 12 -7 234 208 225 217 -3 3 0 6 6 6 17 0 92 82 85 93 -4 6 -1 7 6 3 8 -5
14 0 18 13 3 12 12 21 19 21 8 0 14 4 14 10 0 13 98 109 104 102 3 -3 6 2 6
11 0 9 13 30 30 48 16 18 26 37 23 42 -4 6 -1 7 6 3 8 -5 14 0 18 13 3 11 9
18 14 15 5 -3 9 -1 9 4 0 14 36 52 49 52 7 0 10 4 7 8 -3 5 8 24 25 43 16 19
29 40 29 47 0 6 7 12 15 12 8 0 15 6 15 13 0 8 13 27 30 43 16 16 30 35 30 42
0 7 5 10 10 7 6 -3 10 0 10 8 0 8 9 22 20 32 11 10 20 24 20 31 0 7 8 18 18
23 9 6 13 11 8 11 -5 0 -3 7 4 15 7 8 16 12 21 9 5 -3 9 4 9 16 0 11 9 28 20
37 11 10 20 23 20 31 0 7 4 11 9 8 8 -6 25 30 22 47 -1 5 3 6 8 3 5 -4 13 3
16 15 4 11 9 18 13 15 5 -6 28 39 30 58 0 5 6 12 14 17 7 5 13 12 13 17 0 5 8
16 18 26 9 10 17 23 17 31 0 7 7 15 15 19 8 3 15 12 15 20 0 7 7 17 16 20 9 4
14 9 11 12 -3 3 6 22 19 41 13 20 24 42 24 49 0 8 5 14 10 14 6 0 10 5 10 10
0 6 16 33 35 60 19 27 35 52 35 55 0 24 1 28 6 22 3 -3 17 15 31 41 14 26 29
50 35 53 5 3 8 8 6 10 -4 5 54 121 69 137 7 7 13 20 13 28 0 8 4 14 9 14 5 0
12 12 16 27 3 15 10 30 13 33 7 5 55 99 58 113 1 4 2 12 3 18 0 5 5 8 9 5 4
-2 9 5 9 17 1 12 10 27 19 34 14 10 14 13 3 13 -12 0 -12 2 0 9 8 5 16 18 17
28 2 9 8 19 13 21 6 2 11 12 11 22 0 10 7 25 15 33 8 8 17 30 20 48 3 19 13
37 21 42 8 4 14 15 14 23 0 8 6 25 14 37 8 12 17 39 20 60 4 20 11 37 16 37 5
0 12 16 16 36 5 25 9 32 15 22 6 -9 9 -6 9 12 0 14 9 43 20 65 11 22 19 47 20
56 0 9 7 22 15 29 8 7 15 21 15 31 0 10 4 20 9 23 5 4 12 24 16 46 4 22 10 38
14 35 5 -2 13 20 20 50 7 30 16 57 21 60 4 3 11 23 15 45 4 22 11 40 16 40 6
0 8 3 6 8 -3 4 3 24 13 44 17 36 35 105 31 121 -1 5 3 6 9 2 5 -3 11 1 11 9 1
9 3 21 4 26 1 6 3 19 4 31 0 11 6 17 11 14 6 -3 10 3 10 14 0 37 23 120 32
115 5 -3 8 0 7 7 -3 18 11 81 21 94 4 6 11 29 15 53 4 23 10 42 15 42 4 0 11
24 14 52 4 29 11 55 16 58 7 4 19 52 22 88 1 6 5 12 10 12 4 0 8 5 8 11 0 5
-4 8 -10 4 -5 -3 -3 7 5 22 8 15 15 38 15 50 0 12 4 24 9 27 4 3 11 25 15 48
13 88 18 113 26 123 5 6 12 38 16 72 3 35 11 60 16 57 4 -3 8 -2 6 3 -3 15 14
118 22 128 4 6 11 39 15 75 4 36 11 70 16 77 6 6 13 43 16 83 4 44 9 66 14 58
6 -8 9 -1 10 22 0 19 2 44 4 55 2 11 7 47 10 80 4 33 10 65 15 70 7 9 19 100
23 177 1 14 5 24 9 21 5 -2 8 8 8 24 1 58 13 138 22 144 6 4 5 9 -2 14 -8 5
-8 10 -2 14 5 3 13 47 17 96 4 50 10 94 13 100 3 5 7 25 9 45 2 19 5 53 7 75
3 22 5 67 5 100 1 43 4 56 11 45 5 -8 10 -10 10 -4 0 5 -6 16 -12 23 -10 11
-10 13 0 7 9 -5 12 5 13 36 1 69 8 184 11 199 2 8 8 17 13 21 6 5 5 8 -2 8 -7
0 -13 5 -13 11 0 5 6 7 13 3 9 -6 9 -5 0 7 -8 9 -9 19 -4 25 9 9 15 103 27
434 3 96 10 160 17 169 9 12 9 13 0 7 -10 -5 -13 3 -13 29 0 20 4 34 8 31 5
-3 7 12 6 32 -1 20 -3 37 -4 37 -1 0 -3 8 -5 18 -2 9 0 15 5 12 11 -7 7 76 -4
94 -6 10 -5 12 2 7 13 -8 13 -6 14 414 0 339 -5 552 -13 538 -5 -8 -8 -5 -6 9
0 12 4 20 7 18 3 -2 6 12 6 30 0 18 -4 31 -8 29 -13 -8 -9 21 5 35 10 11 10
13 0 7 -10 -5 -13 9 -14 56 -1 78 -4 164 -14 338 -4 74 -7 142 -8 150 0 8 -5
21 -11 29 -9 12 -8 13 2 7 11 -7 12 -4 4 10 -10 18 -20 126 -21 222 -1 32 -4
41 -13 36 -10 -6 -10 -4 0 7 6 7 12 18 12 24 0 5 -5 3 -10 -5 -7 -11 -10 -3
-11 30 0 25 -2 59 -4 75 -1 17 -4 51 -6 77 -1 26 -6 45 -10 42 -4 -2 -8 11 -8
29 -1 17 -3 43 -5 57 -2 14 -4 42 -5 63 -1 28 -4 36 -13 31 -8 -5 -7 0 2 11 9
11 10 16 3 11 -9 -5 -13 2 -14 26 -1 66 -11 123 -22 137 -9 12 -9 13 1 7 6 -4
12 -3 12 3 0 5 -4 11 -9 13 -5 2 -13 32 -16 68 -4 36 -10 67 -15 70 -4 3 -10
34 -14 70 -13 124 -17 144 -29 152 -9 6 -8 8 3 8 10 0 11 3 4 8 -6 4 -14 29
-17 56 -4 27 -11 54 -16 60 -5 6 -12 41 -16 78 -4 37 -11 66 -15 63 -4 -3 -11
24 -15 60 -3 36 -10 65 -15 65 -4 0 -11 23 -15 50 -4 31 -11 48 -17 43 -6 -3
-9 -2 -6 3 8 13 -26 176 -35 168 -4 -4 -8 5 -8 19 -1 15 -3 32 -4 37 -1 6 -3
19 -4 31 0 11 -6 17 -12 14 -6 -4 -9 -1 -8 6 4 26 -13 89 -25 89 -6 0 -4 5 4
10 8 5 10 10 4 10 -7 0 -15 16 -18 35 -4 19 -13 47 -21 62 -8 15 -15 38 -15
51 0 12 -4 22 -9 22 -5 0 -12 21 -16 47 -4 25 -13 56 -20 67 -8 12 -14 24 -15
29 0 4 0 8 -1 10 0 1 -2 10 -4 20 -2 10 -7 26 -11 35 -4 9 -8 19 -9 22 -11 46
-17 60 -25 60 -6 0 -10 9 -10 20 0 11 -7 37 -16 58 -9 20 -18 48 -20 62 -3 13
-9 27 -13 30 -5 3 -12 20 -16 38 -3 17 -10 32 -14 32 -4 0 -14 25 -21 55 -7
30 -17 55 -21 55 -4 0 -10 14 -14 30 -4 17 -12 30 -18 30 -7 0 -6 4 3 10 9 6
10 10 3 10 -7 0 -15 16 -19 35 -3 19 -10 32 -15 30 -4 -3 -11 10 -15 30 -3 19
-10 35 -15 35 -4 0 -11 16 -15 35 -3 19 -10 32 -15 29 -5 -3 -9 2 -9 10 0 9
-9 33 -20 53 -11 21 -23 52 -26 70 -3 18 -10 31 -14 28 -5 -3 -11 8 -15 25 -4
16 -10 30 -15 30 -5 0 -11 14 -15 30 -4 17 -11 30 -16 30 -5 0 -9 8 -9 17 0 9
-7 24 -16 34 -8 9 -17 25 -18 34 -1 9 -9 21 -17 26 -12 7 -12 9 1 9 12 1 11 3
-2 11 -10 5 -18 19 -18 30 0 11 -4 18 -9 15 -5 -3 -14 15 -21 39 -7 25 -16 45
-21 45 -8 0 -24 40 -21 53 1 5 -2 6 -7 3 -5 -4 -12 7 -16 24 -4 17 -10 28 -15
25 -5 -3 -11 8 -15 25 -4 16 -10 30 -15 30 -9 0 -25 40 -22 53 1 5 -1 6 -6 3
-5 -3 -16 11 -25 32 -17 39 -38 74 -49 82 -3 3 -10 17 -13 33 -4 15 -11 24
-16 22 -5 -3 -11 6 -15 20 -3 14 -10 25 -14 25 -5 0 -12 10 -16 22 -3 12 -12
28 -18 35 -6 7 -16 18 -21 25 -11 14 -33 60 -32 68 0 3 -14 21 -31 40 -18 19
-32 40 -32 47 0 7 -4 13 -10 13 -5 0 -12 11 -16 25 -3 14 -10 22 -15 20 -5 -3
-11 6 -15 20 -3 14 -10 25 -14 25 -4 0 -13 13 -20 29 -6 16 -18 32 -27 35 -8
3 -11 10 -8 16 3 6 -1 13 -9 16 -8 3 -18 15 -22 26 -3 11 -13 28 -22 37 -33
34 -62 71 -62 79 0 4 -12 18 -25 31 -14 12 -23 26 -20 30 2 4 -5 15 -16 24
-10 9 -19 24 -19 34 0 9 -3 14 -6 11 -6 -7 -44 27 -44 40 0 4 -14 21 -30 39
-17 18 -30 36 -30 41 0 6 -11 20 -25 33 -13 13 -25 29 -25 34 -1 6 -14 21 -30
35 -17 13 -30 30 -30 37 0 7 -5 12 -12 11 -7 -2 -12 2 -13 7 0 6 -17 28 -37
49 -21 22 -38 45 -38 53 0 8 -4 11 -10 8 -5 -3 -10 -2 -10 4 0 5 -22 32 -49
60 -27 28 -47 51 -44 51 3 0 -17 23 -46 50 -29 28 -49 50 -46 50 3 0 -6 13
-22 29 -15 16 -32 26 -37 23 -5 -3 -6 0 -2 7 4 6 0 14 -8 17 -9 3 -13 10 -10
15 3 5 -2 9 -10 9 -9 0 -16 5 -16 11 0 5 -4 8 -9 4 -5 -3 -12 4 -16 15 -8 26
-149 167 -175 175 -11 4 -18 11 -15 16 4 5 1 9 -4 9 -6 0 -11 7 -11 15 0 8 -7
15 -15 15 -8 0 -20 9 -27 20 -7 11 -16 20 -19 20 -4 0 -31 23 -60 50 -29 28
-57 50 -61 50 -4 0 -8 7 -8 15 0 8 -4 14 -9 13 -5 -2 -20 10 -35 25 -14 15
-26 25 -26 21 0 -4 -11 4 -24 17 -48 47 -63 59 -72 59 -5 0 -20 12 -33 25 -12
14 -28 22 -34 18 -6 -3 -7 -1 -3 6 4 6 0 14 -11 18 -10 3 -22 12 -26 20 -4 7
-15 13 -23 13 -8 0 -13 4 -9 9 3 5 -4 12 -15 16 -11 3 -20 10 -20 14 0 5 -13
14 -30 21 -16 7 -30 16 -30 21 0 5 -4 9 -9 9 -6 0 -22 11 -37 25 -14 13 -30
22 -35 19 -5 -3 -9 0 -9 6 0 6 -10 15 -22 20 -13 5 -16 9 -8 9 8 1 -9 13 -38
28 -28 14 -49 30 -47 34 3 4 -12 13 -32 20 -21 6 -42 18 -46 25 -4 8 -12 14
-18 14 -5 0 -19 8 -30 18 -10 11 -32 25 -47 33 -15 8 -32 19 -39 24 -38 31
-58 43 -143 87 -36 18 -70 37 -77 43 -33 27 -39 31 -56 38 -9 3 -20 6 -23 6
-4 0 -10 5 -15 13 -8 13 -12 14 -46 17 -16 1 -16 3 -3 11 13 9 13 10 0 10 -8
0 -37 11 -65 25 -27 13 -56 25 -62 25 -7 0 -13 5 -13 10 0 6 -7 10 -15 10 -7
0 -19 8 -24 18 -7 11 -11 12 -11 4 0 -10 -4 -10 -16 2 -8 9 -22 16 -30 16 -8
0 -13 4 -10 9 3 5 -10 12 -28 15 -19 4 -36 10 -38 14 -4 8 -83 47 -118 57 -14
4 -34 14 -45 21 -11 8 -28 14 -38 14 -10 0 -16 4 -12 9 3 6 -10 13 -30 17 -19
3 -35 10 -35 15 0 4 -16 11 -35 15 -19 3 -33 10 -30 14 3 5 -13 11 -35 15 -22
4 -38 10 -35 15 3 5 -13 11 -35 15 -22 4 -46 13 -53 20 -7 7 -32 16 -55 20
-23 4 -40 11 -36 16 3 5 -4 9 -15 9 -12 0 -38 9 -58 20 -21 11 -48 20 -60 20
-13 0 -23 4 -23 10 0 5 -18 13 -41 16 -23 4 -35 10 -29 14 6 4 -11 10 -40 14
-28 4 -48 10 -46 15 3 4 -26 14 -64 21 -39 7 -70 16 -70 20 0 7 -61 23 -76 20
-4 -1 -10 3 -14 10 -4 6 -20 13 -35 16 -16 3 -34 9 -40 13 -5 5 -29 12 -52 16
-24 4 -43 10 -43 14 0 4 -6 8 -12 9 -47 4 -97 16 -93 21 2 4 -30 13 -71 20
-41 8 -74 17 -74 21 0 4 -22 10 -49 14 -28 4 -66 13 -86 22 -20 8 -40 12 -45
9 -5 -3 -11 -1 -15 4 -3 6 -12 8 -20 4 -8 -3 -15 -1 -15 5 0 5 -27 13 -60 17
-33 4 -60 11 -60 15 0 5 -29 12 -65 15 -36 4 -63 11 -60 15 2 4 -17 10 -43 14
-52 6 -69 10 -92 19 -19 7 -70 15 -145 23 -33 4 -65 10 -70 14 -6 5 -37 12
-70 15 -33 4 -64 11 -70 15 -5 4 -45 11 -88 15 -54 5 -75 10 -70 18 4 7 -2 5
-12 -3 -11 -9 -16 -10 -11 -2 5 8 -1 12 -21 13 -15 1 -35 2 -43 3 -8 2 -34 3
-58 4 -29 1 -41 6 -36 13 4 7 -1 7 -16 -1 -15 -8 -20 -8 -16 -1 5 7 -5 11 -26
12 -56 1 -121 10 -137 19 -9 4 -63 11 -121 15 -60 4 -108 12 -112 19 -5 7 -8
6 -8 -4 0 -10 -3 -11 -8 -4 -7 11 -47 15 -277 30 -56 4 -103 12 -107 18 -5 7
-8 6 -8 -4 0 -10 -3 -11 -8 -4 -6 10 -241 29 -309 25 -12 0 -25 4 -28 10 -5 6
-12 6 -23 -3 -9 -7 -13 -8 -9 -2 4 7 -2 12 -18 12 -16 0 -22 -5 -18 -12 5 -7
2 -7 -8 1 -13 11 -144 20 -341 24 -50 1 -88 6 -88 12 0 5 -8 3 -17 -4 -11 -10
-14 -10 -9 -1 4 6 2 12 -3 12 -6 0 -11 -6 -11 -12 0 -10 -3 -9 -9 1 -7 11 -9
11 -14 0 -4 -10 -6 -10 -6 -1 -1 6 -9 12 -19 12 -10 0 -24 -6 -31 -12 -11 -10
-13 -10 -7 0 9 15 100 14 -1299 16 -776 2 -1114 -1 -1124 -8 -11 -8 -13 -8 -7
2 5 8 0 12 -14 12 -19 0 -20 -2 -6 -15z"/>
</g>
</svg>
